<?xml version="1.0" encoding="UTF-8"?>
<svg id="Layer_1" xmlns="http://www.w3.org/2000/svg" version="1.1" viewBox="0 0 708.7 708.7">
  <!-- Generator: Adobe Illustrator 29.2.1, SVG Export Plug-In . SVG Version: 2.1.0 Build 116)  -->
  <defs>
    <style>
      .st0 {
        fill: #ff7300;
      }
    </style>
  </defs>
  <path class="st0" d="M563,274.1c-45.7,0-89.2,14.3-122.6,40-16,12.3-29,26.8-38.5,42.6-9.5,15.8-15.5,33-17.6,50.7-9.7,3.6-19.9,5.4-30,5.4s-20.4-1.8-30.1-5.4c-4.2-35.5-24.1-68.6-56.1-93.3-33.4-25.8-77-40-122.8-40l22.7-59.5h0c50.7,4.2,98.7,22.1,137,51.7,19.8,15.3,36.3,33.1,49.2,52.6,12.8-19.5,29.4-37.3,49.2-52.6,38.2-29.5,86.1-47.4,136.8-51.6l22.7,59.5Z"/>
  <rect class="st0" x="145.2" y="433.6" width="418.3" height="60.5"/>
</svg>