<?xml version="1.0" encoding="UTF-8"?>
<svg id="Layer_1" xmlns="http://www.w3.org/2000/svg" version="1.1" viewBox="0 0 850.4 566.9">
  <!-- Generator: Adobe Illustrator 29.2.1, SVG Export Plug-In . SVG Version: 2.1.0 Build 116)  -->
  <defs>
    <style>
      .st0 {
        fill: #f1f2f2;
      }

      .st1 {
        fill: #ff7300;
      }
    </style>
  </defs>
  <g>
    <path class="st1" d="M299.7,235.2c-17.4,0-33.9,5.4-46.6,15.2-6.1,4.7-11,10.2-14.6,16.2-3.6,6-5.9,12.5-6.7,19.3-3.7,1.4-7.6,2-11.4,2s-7.7-.7-11.4-2c-1.6-13.5-9.2-26.1-21.3-35.5-12.7-9.8-29.3-15.2-46.7-15.2l8.6-22.7h0c19.3,1.6,37.5,8.4,52.1,19.7,7.5,5.8,13.8,12.6,18.7,20,4.9-7.4,11.2-14.2,18.7-20,14.5-11.2,32.8-18,52-19.6l8.6,22.6Z"/>
    <rect class="st1" x="140.8" y="295.8" width="159.1" height="23"/>
  </g>
  <g>
    <path class="st0" d="M395.6,318.9l-30.1-45.6-11.3,11.1v34.5h-20.9v-101.3h20.9v41.2l38.8-41.2h27.5l-40,40,40.9,61.4h-25.8Z"/>
    <path class="st0" d="M469.7,318.9c-.6-1.8-1.1-4.4-1.2-6.7-4.7,5.2-12.7,8.7-22.7,8.7-17.1,0-25-8.4-25-20.6,0-21.7,14.5-24.1,34.5-26.9,9.9-1.4,12.7-3.4,12.7-8.5s-4.9-7.8-12.7-7.8-12.7,4.4-13.6,11.1h-18.5c.3-15.6,8.9-26.4,33-26.4s32,10.7,32,29.6v47.5h-18.5ZM468.4,282.1c-2,2-5.5,3.1-12.8,4.4-11.3,2.1-15,5.3-15,11.8s3.4,8.4,9.6,8.4c10.2,0,17.9-7.5,18-16.3l.2-8.2Z"/>
    <path class="st0" d="M498.7,318.9v-102.6h19.8v102.6h-19.8Z"/>
    <path class="st0" d="M530,354.4v-110.6h19.1l.2,9.2c4.7-7.6,11.8-11.1,20.9-11.1,18.9,0,32.5,15,32.5,40.3s-11.4,38.8-30.8,38.8-16.6-3.8-22.3-11.8v45.3h-19.5ZM582.5,280.7c0-13.4-7-22.7-16.9-22.7s-16.8,8.9-16.8,21.5,5.6,24.4,16.6,24.4,17.1-7.8,17.1-23.2Z"/>
    <path class="st1" d="M612.9,318.9v-102.6h19.8v102.6h-19.8Z"/>
    <path class="st1" d="M691.2,318.9c-.6-1.8-1.1-4.4-1.2-6.7-4.7,5.2-12.7,8.7-22.7,8.7-17.1,0-25-8.4-25-20.6,0-21.7,14.5-24.1,34.5-26.9,9.9-1.4,12.7-3.4,12.7-8.5s-4.9-7.8-12.7-7.8-12.7,4.4-13.6,11.1h-18.5c.3-15.6,8.9-26.4,33-26.4s32,10.7,32,29.6v47.5h-18.5ZM689.8,282.1c-2,2-5.5,3.1-12.8,4.4-11.3,2.1-15,5.3-15,11.8s3.4,8.4,9.6,8.4c10.2,0,17.9-7.5,18-16.3l.2-8.2Z"/>
  </g>
</svg>